<svg width="181" height="38" viewBox="0 0 181 38" fill="none" xmlns="http://www.w3.org/2000/svg">
<g clip-path="url(#clip0_39_105)">
<path d="M131.893 19.7976C131.128 17.6681 130.243 16.8509 128.794 16.8509C127.627 16.8509 126.823 17.5895 126.823 18.6503C126.823 19.7111 127.387 20.328 130.204 21.8838C132.457 23.1528 133.466 23.8089 134.27 24.6654C135.155 25.6084 135.68 26.9992 135.68 28.5118C135.68 32.1146 133.226 34.5269 129.52 34.5269C126.1 34.5269 123.963 32.7275 122.676 28.7986L126.178 27.5689C126.981 30.0637 127.947 31.0498 129.52 31.0498C130.769 31.0498 131.654 30.1894 131.654 29.0029C131.654 27.8164 131.008 27.121 128.836 25.9345C126.1 24.3786 125.335 23.8482 124.45 22.9053C123.523 21.9231 123.001 20.5323 123.001 19.0589C123.001 15.743 125.455 13.3699 128.836 13.3699C132.017 13.3699 134.069 14.9258 135.317 18.281L131.897 19.7936L131.893 19.7976Z" fill="black"/>
<path d="M146.749 20.8191V20.2887C146.749 17.9156 145.983 16.8509 144.333 16.8509C142.401 16.8509 141.798 17.9549 141.798 21.5184V26.4295C141.798 28.3546 141.918 29.2543 142.281 29.9498C142.644 30.6452 143.41 31.0538 144.333 31.0538C145.983 31.0538 146.749 29.9498 146.749 27.4942V26.9206H150.493V27.6985C150.493 30.1148 150.091 31.5449 149.083 32.6489C147.997 33.8747 146.385 34.5308 144.333 34.5308C142.08 34.5308 140.306 33.7922 139.302 32.4014C138.374 31.1323 138.053 29.6983 138.053 26.9167V21.0234C138.053 18.2417 138.374 16.7684 139.302 15.4994C140.306 14.1086 142.038 13.3699 144.333 13.3699C146.385 13.3699 147.997 13.9828 149.083 15.2126C150.087 16.3166 150.493 17.7074 150.493 20.0844V20.823H146.749V20.8191Z" fill="black"/>
<path d="M162.284 34.1222C162.083 33.5486 161.963 32.7314 161.963 31.7492C160.151 33.7529 159.065 34.409 157.453 34.409C154.918 34.409 153.388 32.3621 153.388 29.0068C153.388 26.4688 154.315 24.8737 156.649 23.4003C157.616 22.7874 158.582 22.2963 161.963 20.823V19.7583C161.963 17.6721 161.399 16.8509 159.992 16.8509C158.586 16.8509 157.94 17.7113 157.778 19.7583H153.832C154.153 15.6644 156.491 13.4957 160.514 13.4957C162.365 13.4957 163.695 13.9868 164.618 15.0515C165.465 16.1162 165.704 17.0552 165.704 19.554V28.5982C165.704 31.6667 165.785 32.6096 166.149 34.1222H162.284ZM161.963 23.6439C158.663 25.4434 157.334 26.8774 157.334 28.7593C157.334 30.1108 158.137 31.0498 159.227 31.0498C160.317 31.0498 161.241 30.3937 161.963 29.2072V23.64V23.6439Z" fill="black"/>
<path d="M173.29 16.3991C174.906 14.3521 176.301 13.4917 177.955 13.4917C180.022 13.4917 181 15.0043 181 18.2378V34.1182H177.333V19.22C177.333 17.4206 177.162 16.847 176.146 16.847C175.207 16.847 174.152 17.5856 173.286 18.8939V34.1182H169.789V13.7785H173.286V16.3991H173.29Z" fill="black"/>
<path d="M73.4921 27.1602C73.4921 30.3544 73.1289 31.7452 71.9231 32.971C70.8372 34.0357 69.2643 34.6094 67.3745 34.6094C65.4848 34.6094 63.8733 34.0357 62.7835 32.971C61.6164 31.7452 61.2144 30.3505 61.2144 27.1602V20.8976C61.2144 17.7034 61.6164 16.3126 62.7835 15.0868C63.8694 14.0221 65.4423 13.4485 67.3745 13.4485C69.3068 13.4485 70.8372 14.0221 71.9231 15.0868C73.1289 16.3126 73.4921 17.7074 73.4921 20.8976V27.1602ZM64.9592 27.4078C64.9592 29.9851 65.6857 31.1323 67.3359 31.1323C68.9861 31.1323 69.7512 29.9851 69.7512 27.4078V20.654C69.7512 18.0335 69.0247 16.9295 67.3359 16.9295C65.6471 16.9295 64.9592 18.0767 64.9592 20.654V27.4078Z" fill="black"/>
<path d="M79.8068 16.4777C81.5381 14.4307 83.0259 13.5703 84.7998 13.5703C86.5736 13.5703 87.5784 14.5525 87.9378 16.4777C89.7078 14.4307 91.2381 13.5703 93.0119 13.5703C95.265 13.5703 96.3123 15.0829 96.3123 18.3164V34.1969H92.5675V19.2986C92.5675 17.4992 92.2043 16.9256 91.1183 16.9256C90.1135 16.9256 88.9851 17.6642 88.0576 18.9725V34.1969H84.3128V19.2986C84.3128 17.4992 83.9496 16.9256 82.8636 16.9256C81.8589 16.9256 80.7304 17.6642 79.8029 18.9725V34.1969H76.0582V13.8571H79.8029V16.4777H79.8068Z" fill="black"/>
<path d="M119.013 10.8712H115.268V6.90302H119.013V10.8712ZM119.013 34.2008H115.268V13.861H119.013V34.2008Z" fill="black"/>
<path d="M103.798 16.4973C105.413 14.4504 106.808 13.59 108.462 13.59C110.53 13.59 111.508 15.1026 111.508 18.336V34.2165H107.84V19.3183C107.84 17.5188 107.67 16.9452 106.654 16.9452C105.715 16.9452 104.66 17.6838 103.794 18.9922V34.2165H100.297V13.8768H103.794V16.4973H103.798Z" fill="black"/>
<path d="M35.0631 9.22498H13.7114C6.13881 9.22498 0 15.466 0 23.1646V24.0604C0 31.759 6.13881 38 13.7114 38H35.0631C42.6357 38 48.7745 31.759 48.7745 24.0604V23.1646C48.7745 15.466 42.6357 9.22498 35.0631 9.22498Z" fill="#020202"/>
<path d="M15.7558 30.7631C19.7384 30.7631 22.967 27.4807 22.967 23.4318C22.967 19.3828 19.7384 16.1005 15.7558 16.1005C11.7731 16.1005 8.54453 19.3828 8.54453 23.4318C8.54453 27.4807 11.7731 30.7631 15.7558 30.7631Z" fill="white"/>
<path d="M34.0892 30.9438C38.0718 30.9438 41.3004 27.6615 41.3004 23.6125C41.3004 19.5636 38.0718 16.2812 34.0892 16.2812C30.1065 16.2812 26.8779 19.5636 26.8779 23.6125C26.8779 27.6615 30.1065 30.9438 34.0892 30.9438Z" fill="white"/>
<path d="M20.9845 28.0599C23.1764 28.0599 24.9534 26.2534 24.9534 24.025C24.9534 21.7966 23.1764 19.9901 20.9845 19.9901C18.7925 19.9901 17.0156 21.7966 17.0156 24.025C17.0156 26.2534 18.7925 28.0599 20.9845 28.0599Z" fill="#020202"/>
<path d="M38.7576 28.0599C40.9495 28.0599 42.7264 26.2534 42.7264 24.025C42.7264 21.7966 40.9495 19.9901 38.7576 19.9901C36.5656 19.9901 34.7887 21.7966 34.7887 24.025C34.7887 26.2534 36.5656 28.0599 38.7576 28.0599Z" fill="#020202"/>
<path d="M25.3128 15.8137C25.5369 10.828 23.7438 5.88939 20.3739 2.01159C19.8715 1.43405 18.9981 2.25518 19.4966 2.8288C22.6578 6.47086 24.2771 11.1501 24.0723 15.8176C24.0375 16.5602 25.2819 16.5602 25.3128 15.8176V15.8137Z" fill="black"/>
<path d="M19.9411 4.22746C21.0893 4.22746 22.0202 3.28111 22.0202 2.11373C22.0202 0.946349 21.0893 0 19.9411 0C18.7928 0 17.8619 0.946349 17.8619 2.11373C17.8619 3.28111 18.7928 4.22746 19.9411 4.22746Z" fill="black"/>
</g>
<defs>
<clipPath id="clip0_39_105">
<rect width="181" height="38" fill="white"/>
</clipPath>
</defs>
</svg>
