<svg width="162" height="194" viewBox="0 0 162 194" fill="none" xmlns="http://www.w3.org/2000/svg">
<g clip-path="url(#clip0_303_97)">
<path d="M82.3602 148.22C62.6802 148.22 46.6102 132.16 46.4002 112.45H50.8702C52.0402 112.45 53.2102 111.81 53.8502 110.74C54.4902 109.67 54.3802 108.38 53.7402 107.31L45.8702 94.89C44.5902 92.96 41.5102 92.96 40.2302 94.89L32.3602 107.31C31.7202 108.38 31.6202 109.67 32.2502 110.74C32.8802 111.81 33.9502 112.45 35.2302 112.45H39.8002C39.9102 135.9 58.9502 154.96 82.3602 154.96C84.1702 154.96 85.6602 153.46 85.6602 151.64C85.6602 149.71 84.1702 148.21 82.3602 148.21V148.22Z" fill="#E761FF" stroke="#E761FF" stroke-width="3.98" stroke-miterlimit="10"/>
<path d="M132.47 113.31C131.83 112.24 130.77 111.6 129.49 111.6H124.92C124.81 88.15 105.77 69.09 82.3601 69.09C80.5501 69.09 79.0601 70.59 79.0601 72.41C79.0601 74.23 80.5501 75.73 82.3601 75.73C102.04 75.73 118.11 91.79 118.32 111.5H113.85C112.68 111.5 111.51 112.14 110.87 113.21C110.23 114.28 110.34 115.57 110.98 116.64L118.85 129.17C119.49 130.13 120.55 130.67 121.62 130.67C122.79 130.67 123.85 130.13 124.39 129.17L132.37 116.85C133.01 115.78 133.11 114.49 132.48 113.32L132.47 113.31Z" fill="#E761FF" stroke="#E761FF" stroke-width="3.98" stroke-miterlimit="10"/>
<path d="M80.78 185.73C120.997 185.73 153.6 153.127 153.6 112.91C153.6 72.6926 120.997 40.09 80.78 40.09C40.5626 40.09 7.95996 72.6926 7.95996 112.91C7.95996 153.127 40.5626 185.73 80.78 185.73Z" stroke="#274BFF" stroke-width="15.92" stroke-miterlimit="10"/>
<path d="M66.4 32.84C66.87 22.48 63.08 12.23 55.98 4.17001C54.92 2.97001 53.08 4.67001 54.13 5.86001C60.8 13.42 64.23 23.14 63.79 32.83C63.72 34.37 66.34 34.37 66.41 32.83L66.4 32.84Z" fill="black"/>
<path d="M55.0599 8.78C57.4845 8.78 59.4499 6.81453 59.4499 4.39C59.4499 1.96547 57.4845 0 55.0599 0C52.6354 0 50.6699 1.96547 50.6699 4.39C50.6699 6.81453 52.6354 8.78 55.0599 8.78Z" fill="black"/>
</g>
<defs>
<clipPath id="clip0_303_97">
<rect width="161.57" height="193.7" fill="white"/>
</clipPath>
</defs>
</svg>
