<svg width="65" height="48" viewBox="0 0 65 48" fill="none" xmlns="http://www.w3.org/2000/svg">
<g clip-path="url(#clip0_137_419)">
<path d="M62.5359 0H11.2209C9.86002 0 8.75681 1.09398 8.75681 2.44347V28.634C8.75681 29.9835 9.86002 31.0775 11.2209 31.0775H62.5359C63.8968 31.0775 65 29.9835 65 28.634V2.44347C65 1.09398 63.8968 0 62.5359 0Z" fill="white"/>
<path d="M56.3422 37.9805H3.04606C1.36454 37.9805 0 36.4629 0 34.5916V8.3274C0 6.45613 1.36454 4.93848 3.04606 4.93848H56.3422C58.0238 4.93848 59.3883 6.45613 59.3883 8.3274V34.5916C59.3883 36.4629 58.0238 37.9805 56.3422 37.9805Z" fill="#274BFF"/>
<path d="M28.155 38.0099L19.1531 47.9999L18.7345 34.4688" fill="#274BFF"/>
<path d="M33.8856 15.5376H23.1526C19.0535 15.5376 15.7306 18.8322 15.7306 22.8962C15.7306 26.9603 19.0535 30.2549 23.1526 30.2549H33.8856C37.9846 30.2549 41.3076 26.9603 41.3076 22.8962C41.3076 18.8322 37.9846 15.5376 33.8856 15.5376Z" fill="#191919"/>
<path d="M23.9921 26.554C26.0806 26.554 27.7737 24.8751 27.7737 22.8041C27.7737 20.7331 26.0806 19.0542 23.9921 19.0542C21.9036 19.0542 20.2105 20.7331 20.2105 22.8041C20.2105 24.8751 21.9036 26.554 23.9921 26.554Z" fill="white"/>
<path d="M33.6082 26.6473C35.6967 26.6473 37.3898 24.9684 37.3898 22.8974C37.3898 20.8264 35.6967 19.1475 33.6082 19.1475C31.5197 19.1475 29.8267 20.8264 29.8267 22.8974C29.8267 24.9684 31.5197 26.6473 33.6082 26.6473Z" fill="white"/>
<path d="M26.736 25.174C27.8863 25.174 28.8187 24.2494 28.8187 23.1087C28.8187 21.9681 27.8863 21.0435 26.736 21.0435C25.5858 21.0435 24.6533 21.9681 24.6533 23.1087C24.6533 24.2494 25.5858 25.174 26.736 25.174Z" fill="#191919"/>
<path d="M36.055 25.174C37.2052 25.174 38.1377 24.2494 38.1377 23.1087C38.1377 21.9681 37.2052 21.0435 36.055 21.0435C34.9047 21.0435 33.9723 21.9681 33.9723 23.1087C33.9723 24.2494 34.9047 25.174 36.055 25.174Z" fill="#191919"/>
<path d="M29.0045 18.9094C29.1209 16.3579 28.1798 13.8334 26.4166 11.8491C26.154 11.5544 25.6959 11.9744 25.9559 12.2666C27.6127 14.128 28.4646 16.5224 28.3556 18.9094C28.3383 19.29 28.9896 19.2876 29.0069 18.9094H29.0045Z" fill="black"/>
<path d="M26.1887 12.9811C26.7905 12.9811 27.2784 12.4974 27.2784 11.9006C27.2784 11.3038 26.7905 10.8201 26.1887 10.8201C25.5869 10.8201 25.0991 11.3038 25.0991 11.9006C25.0991 12.4974 25.5869 12.9811 26.1887 12.9811Z" fill="black"/>
</g>
<defs>
<clipPath id="clip0_137_419">
<rect width="65" height="48" fill="white"/>
</clipPath>
</defs>
</svg>
