<svg width="640" height="500" viewBox="0 0 640 500" fill="none" xmlns="http://www.w3.org/2000/svg">
<g clip-path="url(#clip0_31_240)">
<path d="M281.381 0H16.3687C7.32851 0 0 7.32812 0 16.3678V65.7438C0 74.7835 7.32851 82.1116 16.3687 82.1116H281.381C290.421 82.1116 297.749 74.7835 297.749 65.7438V16.3678C297.749 7.32812 290.421 0 281.381 0Z" fill="#00E28B"/>
<path d="M281.381 100.531H16.3687C7.32851 100.531 0 107.859 0 116.899V166.275C0 175.314 7.32851 182.642 16.3687 182.642H281.381C290.421 182.642 297.749 175.314 297.749 166.275V116.899C297.749 107.859 290.421 100.531 281.381 100.531Z" fill="#00E28B"/>
<path d="M281.381 201.062H16.3687C7.32851 201.062 0 208.39 0 217.429V266.805C0 275.845 7.32851 283.173 16.3687 283.173H281.381C290.421 283.173 297.749 275.845 297.749 266.805V217.429C297.749 208.39 290.421 201.062 281.381 201.062Z" fill="#00E28B"/>
<path d="M623.646 214.732H358.634C349.593 214.732 342.265 222.061 342.265 231.1V268.57C342.265 277.61 349.593 284.938 358.634 284.938H623.646C632.686 284.938 640.014 277.61 640.014 268.57V231.1C640.014 222.061 632.686 214.732 623.646 214.732Z" fill="#E761FF"/>
<path d="M623.646 300.703H358.634C349.593 300.703 342.265 308.031 342.265 317.071V354.54C342.265 363.58 349.593 370.908 358.634 370.908H623.646C632.686 370.908 640.014 363.58 640.014 354.54V317.071C640.014 308.031 632.686 300.703 623.646 300.703Z" fill="#E761FF"/>
<path d="M623.646 386.659H358.634C349.593 386.659 342.265 393.987 342.265 403.027V440.496C342.265 449.536 349.593 456.864 358.634 456.864H623.646C632.686 456.864 640.014 449.536 640.014 440.496V403.027C640.014 393.987 632.686 386.659 623.646 386.659Z" fill="#E761FF"/>
<g style="mix-blend-mode:multiply">
<path d="M413.005 496.184C413.005 498.293 371.387 500 320.043 500C268.699 500 227.081 498.293 227.081 496.184C227.081 494.075 268.699 492.368 320.043 492.368C371.387 492.368 413.005 494.075 413.005 496.184Z" fill="#DDB097"/>
</g>
<path d="M383.581 492.512H256.491L264.955 391.307H374.931L383.581 492.512Z" fill="#E6E7E8"/>
<g style="mix-blend-mode:multiply">
<path d="M264.955 391.307L260.551 443.896C281.955 438.431 322.353 432.176 379.263 442.117L374.916 391.307H264.955Z" fill="#E6E7E8"/>
</g>
<path d="M395.044 491.78H244.799C244.553 491.78 244.354 491.979 244.354 492.225V495.166C244.354 495.411 244.553 495.61 244.799 495.61H395.044C395.289 495.61 395.488 495.411 395.488 495.166V492.225C395.488 491.979 395.289 491.78 395.044 491.78Z" fill="#BCBEC0"/>
<path d="M60.9988 370.879H579.087V401.32C579.087 418.907 564.799 433.195 547.211 433.195H92.8755C75.2874 433.195 60.9988 418.907 60.9988 401.32V370.879Z" fill="#E6E7E8"/>
<path d="M319.914 414.704C326.91 414.704 332.581 409.033 332.581 402.037C332.581 395.041 326.91 389.37 319.914 389.37C312.918 389.37 307.246 395.041 307.246 402.037C307.246 409.033 312.918 414.704 319.914 414.704Z" fill="#383838"/>
<path d="M89.8485 50.8105H550.238C566.162 50.8105 579.087 63.7355 579.087 79.6586V378.669H60.9988V79.6586C60.9988 63.7355 73.9245 50.8105 89.8485 50.8105Z" fill="#2B2B2B"/>
<path d="M547.455 77.3777H92.6172V348.874H547.455V77.3777Z" fill="#3924FF"/>
<path d="M104.065 85.3249C104.065 86.9603 102.745 88.28 101.11 88.28C99.4746 88.28 98.1548 86.9603 98.1548 85.3249C98.1548 83.6896 99.4746 82.3698 101.11 82.3698C102.745 82.3698 104.065 83.6896 104.065 85.3249Z" fill="#FF6E79"/>
<path d="M112.558 85.3249C112.558 86.9603 111.238 88.28 109.603 88.28C107.967 88.28 106.648 86.9603 106.648 85.3249C106.648 83.6896 107.967 82.3698 109.603 82.3698C111.238 82.3698 112.558 83.6896 112.558 85.3249Z" fill="#FBB040"/>
<path d="M121.065 85.3249C121.065 86.9603 119.745 88.28 118.11 88.28C116.475 88.28 115.155 86.9603 115.155 85.3249C115.155 83.6896 116.475 82.3698 118.11 82.3698C119.745 82.3698 121.065 83.6896 121.065 85.3249Z" fill="#8DC63F"/>
<path d="M92.6172 94.8644H547.455" stroke="#BCBEC0" stroke-width="0.57" stroke-miterlimit="10"/>
<path d="M372.061 158.456H268.01C229.18 158.456 197.701 189.933 197.701 228.762V230.125C197.701 268.954 229.18 300.43 268.01 300.43H372.061C410.892 300.43 442.371 268.954 442.371 230.125V228.762C442.371 189.933 410.892 158.456 372.061 158.456Z" fill="#020202"/>
<path d="M276.733 264.711C296.707 264.711 312.899 248.52 312.899 228.547C312.899 208.574 296.707 192.383 276.733 192.383C256.759 192.383 240.567 208.574 240.567 228.547C240.567 248.52 256.759 264.711 276.733 264.711Z" fill="white"/>
<path d="M368.704 265.6C388.678 265.6 404.87 249.409 404.87 229.436C404.87 209.463 388.678 193.272 368.704 193.272C348.73 193.272 332.538 209.463 332.538 229.436C332.538 249.409 348.73 265.6 368.704 265.6Z" fill="white"/>
<path d="M302.971 251.384C313.969 251.384 322.884 242.47 322.884 231.473C322.884 220.477 313.969 211.562 302.971 211.562C291.974 211.562 283.059 220.477 283.059 231.473C283.059 242.47 291.974 251.384 302.971 251.384Z" fill="#020202"/>
<path d="M392.117 251.384C403.114 251.384 412.029 242.47 412.029 231.473C412.029 220.477 403.114 211.562 392.117 211.562C381.12 211.562 372.205 220.477 372.205 231.473C372.205 242.47 381.12 251.384 392.117 251.384Z" fill="#020202"/>
<path d="M324.677 190.963C325.796 166.361 316.801 142.003 299.916 122.866C297.405 120.011 293.015 124.057 295.512 126.883C311.364 144.843 319.498 167.939 318.451 190.963C318.278 194.621 324.519 194.621 324.677 190.963Z" fill="black"/>
<path d="M297.749 133.797C303.51 133.797 308.179 129.128 308.179 123.368C308.179 117.609 303.51 112.939 297.749 112.939C291.989 112.939 287.32 117.609 287.32 123.368C287.32 129.128 291.989 133.797 297.749 133.797Z" fill="black"/>
<path d="M421.842 195.194C405.444 195.194 392.117 181.853 392.117 165.471C392.117 149.089 405.459 135.748 421.842 135.748C438.225 135.748 451.566 149.089 451.566 165.471C451.566 181.853 438.225 195.194 421.842 195.194ZM421.842 141.587C408.672 141.587 397.97 152.288 397.97 165.457C397.97 178.626 408.686 189.327 421.842 189.327C434.997 189.327 445.713 178.626 445.713 165.457C445.713 152.288 435.011 141.587 421.842 141.587Z" fill="#00E28B"/>
<path d="M425.572 188.007C424.711 188.007 423.879 187.635 423.319 186.946L397.841 156.176C396.808 154.928 396.98 153.077 398.228 152.059C399.476 151.026 401.327 151.198 402.346 152.446L422.702 177.033C422.989 172.845 423.707 167.451 425.414 161.842C430.363 145.503 441.237 135.16 456.846 131.961C458.424 131.631 459.973 132.664 460.303 134.242C460.633 135.82 459.6 137.369 458.022 137.699C444.508 140.468 435.442 149.118 431.066 163.377C427.695 174.38 428.484 184.751 428.498 184.852C428.599 186.128 427.867 187.319 426.676 187.807C426.318 187.95 425.945 188.022 425.572 188.022V188.007Z" fill="white"/>
<path d="M419.589 137.943C419.819 132.822 417.954 127.758 414.439 123.784C413.923 123.196 413.005 124.028 413.521 124.616C416.821 128.346 418.513 133.152 418.298 137.943C418.27 138.703 419.561 138.703 419.589 137.943Z" fill="black"/>
<path d="M413.98 126.051C415.176 126.051 416.146 125.081 416.146 123.885C416.146 122.688 415.176 121.719 413.98 121.719C412.784 121.719 411.814 122.688 411.814 123.885C411.814 125.081 412.784 126.051 413.98 126.051Z" fill="black"/>
</g>
<defs>
<clipPath id="clip0_31_240">
<rect width="640" height="500" fill="white"/>
</clipPath>
</defs>
</svg>
