<svg width="624" height="277" viewBox="0 0 624 277" fill="none" xmlns="http://www.w3.org/2000/svg">
<g clip-path="url(#clip0_137_573)">
<path d="M574.94 64.3201H49.06C21.9649 64.3201 0 86.285 0 113.38V227.26C0 254.355 21.9649 276.32 49.06 276.32H574.94C602.035 276.32 624 254.355 624 227.26V113.38C624 86.285 602.035 64.3201 574.94 64.3201Z" fill="#0048EA"/>
<path d="M46.15 98.3201H143.11V232.62H46.15C37.41 232.62 30.32 225.53 30.32 216.79V114.15C30.32 105.41 37.41 98.3201 46.15 98.3201Z" fill="#00E28B"/>
<path d="M254 98.45H141.21V232.75H254V98.45Z" fill="#16C47D"/>
<path d="M366.79 98.45H254V232.75H366.79V98.45Z" fill="#FFE41F"/>
<path d="M477.54 98.45H364.75V232.75H477.54V98.45Z" fill="#FFC91D"/>
<path d="M477.53 98.45H574.49C583.23 98.45 590.32 105.54 590.32 114.28V216.92C590.32 225.66 583.23 232.75 574.49 232.75H477.53V98.45Z" fill="#E63E11"/>
<path d="M342.27 26.8401H281.73C258.611 26.8401 239.87 45.5814 239.87 68.7001C239.87 91.8187 258.611 110.56 281.73 110.56H342.27C365.389 110.56 384.13 91.8187 384.13 68.7001C384.13 45.5814 365.389 26.8401 342.27 26.8401Z" fill="#191919"/>
<path d="M286.46 89.4901C298.235 89.4901 307.78 79.9448 307.78 68.1701C307.78 56.3954 298.235 46.8501 286.46 46.8501C274.685 46.8501 265.14 56.3954 265.14 68.1701C265.14 79.9448 274.685 89.4901 286.46 89.4901Z" fill="white"/>
<path d="M340.69 90.0199C352.465 90.0199 362.01 80.4746 362.01 68.6999C362.01 56.9252 352.465 47.3799 340.69 47.3799C328.915 47.3799 319.37 56.9252 319.37 68.6999C319.37 80.4746 328.915 90.0199 340.69 90.0199Z" fill="white"/>
<path d="M301.94 81.6399C308.424 81.6399 313.68 76.3837 313.68 69.8999C313.68 63.4161 308.424 58.1599 301.94 58.1599C295.456 58.1599 290.2 63.4161 290.2 69.8999C290.2 76.3837 295.456 81.6399 301.94 81.6399Z" fill="#191919"/>
<path d="M354.5 81.6399C360.984 81.6399 366.24 76.3837 366.24 69.8999C366.24 63.4161 360.984 58.1599 354.5 58.1599C348.016 58.1599 342.76 63.4161 342.76 69.8999C342.76 76.3837 348.016 81.6399 354.5 81.6399Z" fill="#191919"/>
<path d="M314.74 46.01C315.4 31.5 310.1 17.14 300.14 5.85001C298.66 4.17001 296.07 6.56001 297.54 8.22001C306.89 18.81 311.68 32.43 311.07 46.01C310.97 48.17 314.64 48.16 314.74 46.01Z" fill="black"/>
<path d="M298.85 12.3C302.247 12.3 305 9.54655 305 6.15C305 2.75345 302.247 0 298.85 0C295.453 0 292.7 2.75345 292.7 6.15C292.7 9.54655 295.453 12.3 298.85 12.3Z" fill="black"/>
<path d="M455.03 163.5C455.03 172.47 452.4 179.57 447.15 184.8C441.9 190.03 434.61 192.64 425.28 192.64H404.94V134.29H425.05C434.64 134.29 442.03 136.85 447.23 141.98C452.43 147.1 455.03 154.28 455.03 163.51V163.5ZM424.36 147.59H421.61V179.33H425.28C429.51 179.33 432.75 177.95 434.99 175.2C437.23 172.45 438.36 168.52 438.36 163.42C438.36 158.32 437.17 154.34 434.8 151.64C432.43 148.94 428.95 147.59 424.36 147.59Z" fill="#282723"/>
<path d="M549.48 180.1V192.64H510.93V134.29H548.56V146.83H527.6V156.77H547.03V169.31H527.6V180.09H549.47L549.48 180.1Z" fill="#282723"/>
<path d="M85.84 181.93L82.55 192.64H65.34L84.77 134.29H102.05L121.48 192.64H104.27L100.98 181.93H85.84ZM93.19 150.19C92.99 151.57 92.68 153.29 92.27 155.35C91.86 157.41 91.43 159.26 90.97 160.89L88.6 169.38H98.24L95.95 160.89C95.49 159.21 95.04 157.33 94.61 155.27C94.18 153.21 93.88 151.51 93.73 150.18H93.19V150.19Z" fill="#282723"/>
<path d="M208.41 134.29C214.38 134.29 218.96 135.6 222.18 138.23C225.39 140.86 227 144.59 227 149.43C227 152.85 226.22 155.63 224.67 157.77C223.11 159.91 220.76 161.44 217.6 162.36V162.51C221.22 163.07 224.09 164.54 226.2 166.91C228.32 169.28 229.37 172.18 229.37 175.59C229.37 181.15 227.41 185.38 223.48 188.29C219.55 191.2 213.82 192.65 206.27 192.65H183.94V134.3H208.41V134.29ZM200.61 156.69H205.28C207.01 156.69 208.33 156.27 209.22 155.43C210.11 154.59 210.56 153.35 210.56 151.72C210.56 150.09 210.11 148.95 209.22 148.16C208.33 147.37 207.01 146.97 205.28 146.97H200.61V156.68V156.69ZM200.61 179.94H206.58C208.52 179.94 210.05 179.44 211.17 178.45C212.29 177.46 212.85 176.09 212.85 174.36C212.85 172.83 212.29 171.62 211.17 170.73C210.05 169.84 208.49 169.39 206.5 169.39H200.61V179.94Z" fill="#282723"/>
<path d="M301.31 163.42C301.31 168.67 302.33 172.62 304.37 175.27C306.41 177.92 309.47 179.25 313.55 179.25C316.15 179.25 318.8 178.82 321.5 177.95C324.2 177.08 326.65 175.89 328.84 174.36V189.04C326.39 190.47 323.59 191.55 320.43 192.29C317.27 193.03 313.98 193.4 310.56 193.4C302.55 193.4 296.23 190.67 291.59 185.22C286.95 179.76 284.63 172.52 284.63 163.5C284.63 154.48 287.09 147.03 292.01 141.63C296.93 136.23 303.72 133.52 312.39 133.52C315.45 133.52 318.29 133.81 320.92 134.4C323.54 134.99 326.06 135.87 328.45 137.04V152.11C326.21 150.53 323.95 149.38 321.68 148.67C319.41 147.96 316.85 147.6 313.99 147.6C309.66 147.6 306.46 148.9 304.39 151.5C302.33 154.1 301.29 158.08 301.29 163.43L301.31 163.42Z" fill="#282723"/>
</g>
<defs>
<clipPath id="clip0_137_573">
<rect width="624" height="276.32" fill="white"/>
</clipPath>
</defs>
</svg>
