<svg width="168" height="169" viewBox="0 0 168 169" fill="none" xmlns="http://www.w3.org/2000/svg">
<path d="M72.1565 38.8337C72.7057 27.2205 68.2702 15.727 59.9346 6.69305C58.6901 5.35026 56.528 7.25809 57.7585 8.59424C65.5797 17.0765 69.5981 27.9717 69.0836 38.8404C69.0002 40.5687 72.073 40.5621 72.1565 38.8404V38.8337Z" fill="black"/>
<path d="M58.857 11.8516C61.7021 11.8516 64.0085 9.64624 64.0085 6.9258C64.0085 4.20536 61.7021 2 58.857 2C56.0118 2 53.7054 4.20536 53.7054 6.9258C53.7054 9.64624 56.0118 11.8516 58.857 11.8516Z" fill="black"/>
<path d="M39.9749 81.3446L71.8784 132.397C71.8784 132.397 99.7635 32.1531 156.778 11.2467" stroke="#00E28B" stroke-width="21" stroke-linecap="round" stroke-linejoin="round"/>
<path d="M123.609 56.8352C120.933 60.4847 118.298 64.4067 115.712 68.588C122.935 77.6818 127.224 89.0092 127.224 101.287C127.224 131.161 101.807 155.464 70.5644 155.464C39.3214 155.464 13.9043 131.161 13.9043 101.287C13.9043 71.4132 39.3214 47.1099 70.5644 47.1099C78.33 47.1099 85.741 48.6123 92.4845 51.3311C95.0082 47.3758 97.5944 43.6267 100.222 40.0702C91.1984 36.0551 81.1525 33.8149 70.5644 33.8149C31.6532 33.8149 0 64.081 0 101.287C0 138.493 31.6532 168.759 70.5644 168.759C109.476 168.759 141.129 138.493 141.129 101.287C141.129 84.2761 134.51 68.7143 123.609 56.8352Z" fill="#274BFF"/>
</svg>
