<svg width="180" height="224" viewBox="0 0 180 224" fill="none" xmlns="http://www.w3.org/2000/svg">
<g clip-path="url(#clip0_123_133)">
<path d="M89.3142 82.0266C86.0014 76.2659 78.6644 74.2922 72.9265 77.6181C67.1886 80.944 65.2227 88.3101 68.5354 94.0708L139.788 217.973C143.101 223.734 150.438 225.708 156.176 222.382C161.914 219.056 163.88 211.69 160.567 205.929L89.3142 82.0266Z" fill="#191919"/>
<path d="M163.546 48.3665H16.4535C7.36649 48.3665 0 55.7623 0 64.8853V122.201C0 131.324 7.36649 138.72 16.4535 138.72H163.546C172.633 138.72 180 131.324 180 122.201V64.8853C180 55.7623 172.633 48.3665 163.546 48.3665Z" fill="#E761FF"/>
<path d="M64.818 40.4393C65.3924 27.687 60.7537 15.0662 52.0362 5.14616C50.7347 3.67166 48.4736 5.76662 49.7605 7.23382C57.94 16.548 62.1424 28.5119 61.6044 40.4466C61.5171 42.3445 64.7308 42.3372 64.818 40.4466V40.4393Z" fill="black"/>
<path d="M50.9092 10.8179C53.8847 10.8179 56.2968 8.39621 56.2968 5.40894C56.2968 2.42166 53.8847 0 50.9092 0C47.9338 0 45.5217 2.42166 45.5217 5.40894C45.5217 8.39621 47.9338 10.8179 50.9092 10.8179Z" fill="black"/>
<path d="M89.8291 154.75C124.965 154.75 153.448 126.154 153.448 90.8789C153.448 55.6041 124.965 27.0082 89.8291 27.0082C54.6937 27.0082 26.2108 55.6041 26.2108 90.8789C26.2108 126.154 54.6937 154.75 89.8291 154.75Z" fill="#274BFF"/>
<path d="M90.1927 137.961C116.293 137.961 137.452 116.718 137.452 90.5139C137.452 64.3097 116.293 43.0671 90.1927 43.0671C64.092 43.0671 42.9333 64.3097 42.9333 90.5139C42.9333 116.718 64.092 137.961 90.1927 137.961Z" fill="white"/>
<path d="M108.013 67.4693H76.502C64.4676 67.4693 54.7118 77.2622 54.7118 89.3423C54.7118 101.422 64.4676 111.215 76.502 111.215H108.013C120.047 111.215 129.803 101.422 129.803 89.3423C129.803 77.2622 120.047 67.4693 108.013 67.4693Z" fill="#191919"/>
<path d="M78.9667 100.215C85.0984 100.215 90.0691 95.2245 90.0691 89.0686C90.0691 82.9126 85.0984 77.9222 78.9667 77.9222C72.8351 77.9222 67.8644 82.9126 67.8644 89.0686C67.8644 95.2245 72.8351 100.215 78.9667 100.215Z" fill="white"/>
<path d="M107.199 100.485C113.33 100.485 118.301 95.4946 118.301 89.3387C118.301 83.1827 113.33 78.1923 107.199 78.1923C101.067 78.1923 96.0965 83.1827 96.0965 89.3387C96.0965 95.4946 101.067 100.485 107.199 100.485Z" fill="white"/>
<path d="M87.0227 96.1053C90.3997 96.1053 93.1373 93.3568 93.1373 89.9664C93.1373 86.576 90.3997 83.8275 87.0227 83.8275C83.6456 83.8275 80.908 86.576 80.908 89.9664C80.908 93.3568 83.6456 96.1053 87.0227 96.1053Z" fill="#191919"/>
<path d="M114.382 96.1053C117.759 96.1053 120.497 93.3568 120.497 89.9664C120.497 86.576 117.759 83.8275 114.382 83.8275C111.005 83.8275 108.268 86.576 108.268 89.9664C108.268 93.3568 111.005 96.1053 114.382 96.1053Z" fill="#191919"/>
<path d="M93.6899 77.4843C94.0316 69.9001 91.2687 62.3962 86.092 56.4982C85.3213 55.6222 83.9762 56.8705 84.7397 57.7391C89.6037 63.2721 92.1048 70.3891 91.7849 77.4843C91.734 78.6157 93.6462 78.6084 93.6971 77.4843H93.6899Z" fill="black"/>
<path d="M85.4158 59.8633C87.1826 59.8633 88.6149 58.4253 88.6149 56.6515C88.6149 54.8777 87.1826 53.4397 85.4158 53.4397C83.649 53.4397 82.2167 54.8777 82.2167 56.6515C82.2167 58.4253 83.649 59.8633 85.4158 59.8633Z" fill="black"/>
</g>
<defs>
<clipPath id="clip0_123_133">
<rect width="180" height="224" fill="white"/>
</clipPath>
</defs>
</svg>
