<svg width="178" height="213" viewBox="0 0 178 213" fill="none" xmlns="http://www.w3.org/2000/svg">
<g clip-path="url(#clip0_137_335)">
<path d="M92.97 47.3605C93.6418 32.4303 88.1938 17.647 77.9697 6.02103C76.4428 4.29549 73.7921 6.74307 75.3068 8.46861C84.9079 19.3725 89.8429 33.3849 89.2077 47.3605C89.1099 49.5878 92.8845 49.5756 92.9822 47.3605H92.97Z" fill="black"/>
<path d="M76.6504 12.6539C80.1383 12.6539 82.9657 9.82127 82.9657 6.32697C82.9657 2.83268 80.1383 0 76.6504 0C73.1626 0 70.3352 2.83268 70.3352 6.32697C70.3352 9.82127 73.1626 12.6539 76.6504 12.6539Z" fill="black"/>
<path d="M91.3942 204.446C134.51 204.446 169.462 169.429 169.462 126.234C169.462 83.0382 134.51 48.0214 91.3942 48.0214C48.2787 48.0214 13.3268 83.0382 13.3268 126.234C13.3268 169.429 48.2787 204.446 91.3942 204.446Z" stroke="#274BFF" stroke-width="13.97" stroke-miterlimit="10"/>
<path fill-rule="evenodd" clip-rule="evenodd" d="M8.85601 138.006L23.9418 131.263C23.9418 131.263 25.6153 123.859 31.8573 113.274C40.2857 98.9798 48.6776 92.041 48.6776 92.041C48.6776 92.041 54.4187 67.5652 47.6882 52.3413C46.259 49.0983 59.5736 44.6437 68.1364 51.4725C79.4355 60.4795 76.7115 85.971 81.17 93.8277C86.899 103.936 106.736 87.2804 126.024 88.186C127.795 88.2717 135.674 90.0829 137.836 96.4588C139.241 100.595 135.32 105.221 135.32 105.221C135.32 105.221 141.574 109.039 142.576 117.814C143.138 122.709 136.749 127.372 136.749 127.372C136.749 127.372 143.321 131.373 142.393 137.627C141.403 144.37 136.884 147.013 136.884 147.013C136.884 147.013 145.153 150.024 144.054 157C143.492 160.573 139.595 164.538 135.906 167.194C123.874 175.883 105.735 181.916 75.5633 185.661C64.1054 187.08 48.7142 184.094 40.9209 186.383C37.3419 187.447 31.4541 188.598 25.9084 195.133C20.3627 201.668 -16.6249 160.12 8.8438 138.019L8.85601 138.006Z" fill="#E761FF"/>
<path d="M72.4484 121.057C72.4484 121.057 74.9159 141.886 49.7037 150.513" stroke="black" stroke-width="6.02" stroke-linecap="round" stroke-linejoin="round"/>
<path d="M100.201 102.272C100.201 102.272 78.4705 111.915 81.8175 122.048C85.6286 133.564 135.674 105.099 135.674 105.099" stroke="black" stroke-width="6.02" stroke-linecap="round" stroke-linejoin="round"/>
<path d="M91.1254 124.471C91.1254 124.471 76.7848 131.19 83.5276 139.45C91.1987 148.861 137.995 122.917 137.995 122.917" stroke="black" stroke-width="6.02" stroke-linecap="round" stroke-linejoin="round"/>
<path d="M92.689 141.653C92.689 141.653 83.6742 145.863 90.417 154.124C98.0881 163.535 134.697 146.316 134.697 146.316" stroke="black" stroke-width="6.02" stroke-linecap="round" stroke-linejoin="round"/>
<path d="M96.6467 156.828C96.6467 156.828 90.5635 160.536 97.3063 168.809C104.977 178.22 138.667 161.503 138.667 161.503" stroke="black" stroke-width="6.02" stroke-linecap="round" stroke-linejoin="round"/>
<mask id="mask0_137_335" style="mask-type:luminance" maskUnits="userSpaceOnUse" x="-24" y="123" width="86" height="82">
<path d="M-5.57014 131.3C-35.0332 154.858 -29.2676 208.594 13.7665 203.993C26.4093 202.647 38.2458 198.633 49.5937 193.089C51.8291 192 60.905 189.956 61.6624 188.316C63.1893 185.036 52.562 173.521 51.0596 171.147C45.1718 161.87 40.0537 152.545 35.5218 142.473C33.6895 138.398 30.8067 128.143 27.3865 125.022C21.4988 119.637 -0.696274 128.412 -5.57014 131.288C-35.0332 154.846 -0.696274 128.412 -5.57014 131.288V131.3Z" fill="white"/>
</mask>
<g mask="url(#mask0_137_335)">
<path fill-rule="evenodd" clip-rule="evenodd" d="M8.85601 138.006L23.9418 131.263C23.9418 131.263 25.6153 123.859 31.8573 113.274C40.2857 98.9798 48.6776 92.041 48.6776 92.041C48.6776 92.041 54.4187 67.5653 47.6882 52.3414C46.259 49.0983 59.5736 44.6437 68.1364 51.4725C79.4355 60.4795 76.7115 85.971 81.17 93.8277C86.899 103.936 106.736 87.2804 126.024 88.1861C127.795 88.2717 135.674 90.0829 137.836 96.4588C139.241 100.595 135.32 105.221 135.32 105.221C135.32 105.221 141.574 109.039 142.576 117.814C143.138 122.709 136.749 127.372 136.749 127.372C136.749 127.372 143.321 131.373 142.393 137.627C141.403 144.37 136.884 147.013 136.884 147.013C136.884 147.013 145.153 150.024 144.054 157C143.492 160.573 139.595 164.538 135.906 167.194C123.874 175.883 105.735 181.916 75.5633 185.661C64.1054 187.08 48.7142 184.094 40.9209 186.383C37.3419 187.447 31.4541 188.598 25.9084 195.133C20.3627 201.668 -16.6249 160.12 8.8438 138.019L8.85601 138.006Z" fill="#E761FF"/>
<path d="M72.4484 121.057C72.4484 121.057 74.9159 141.886 49.7037 150.513" stroke="black" stroke-width="6.02" stroke-linecap="round" stroke-linejoin="round"/>
<path d="M91.3942 204.446C134.51 204.446 169.462 169.429 169.462 126.234C169.462 83.0382 134.51 48.0214 91.3942 48.0214C48.2787 48.0214 13.3268 83.0382 13.3268 126.234C13.3268 169.429 48.2787 204.446 91.3942 204.446Z" stroke="#274BFF" stroke-width="13.97" stroke-miterlimit="10"/>
</g>
</g>
<defs>
<clipPath id="clip0_137_335">
<rect width="178" height="213" fill="white"/>
</clipPath>
</defs>
</svg>
