<svg width="204" height="333" viewBox="0 0 204 333" fill="none" xmlns="http://www.w3.org/2000/svg">
<g clip-path="url(#clip0_39_209)">
<path d="M40.0704 288.173C37.7021 281.694 34.963 279.207 30.4775 279.207C26.8652 279.207 24.3772 281.455 24.3772 284.682C24.3772 287.91 26.1236 289.787 34.8433 294.52C41.8168 298.381 44.9387 300.378 47.4266 302.984C50.1658 305.853 51.7925 310.084 51.7925 314.687C51.7925 325.648 44.1971 332.988 32.7262 332.988C22.1404 332.988 15.5258 327.513 11.5427 315.559L22.3797 311.818C24.8676 319.408 27.8579 322.409 32.7262 322.409C36.5897 322.409 39.3288 319.791 39.3288 316.181C39.3288 312.571 37.3313 310.455 30.609 306.845C22.1404 302.111 19.7721 300.497 17.033 297.628C14.1622 294.64 12.5475 290.408 12.5475 285.926C12.5475 275.836 20.1429 268.616 30.609 268.616C40.4532 268.616 46.8046 273.35 50.6681 283.559L40.0824 288.161L40.0704 288.173Z" fill="black"/>
<path d="M86.0497 291.281V289.667C86.0497 282.447 83.6813 279.207 78.5738 279.207C72.5932 279.207 70.7272 282.566 70.7272 293.409V308.351C70.7272 314.208 71.098 316.946 72.2224 319.062C73.3467 321.178 75.7151 322.421 78.5738 322.421C83.6813 322.421 86.0497 319.062 86.0497 311.591V309.845H97.6401V312.212C97.6401 319.564 96.3962 323.915 93.2743 327.274C89.9132 331.004 84.9253 333 78.5738 333C71.6004 333 66.1102 330.753 63.0002 326.521C60.1295 322.66 59.1367 318.297 59.1367 309.833V291.902C59.1367 283.439 60.1295 278.956 63.0002 275.095C66.1102 270.864 71.4688 268.616 78.5738 268.616C84.9253 268.616 89.9132 270.481 93.2743 274.223C96.3842 277.582 97.6401 281.813 97.6401 289.045V291.293H86.0497V291.281Z" fill="black"/>
<path d="M134.146 331.757C133.524 330.012 133.153 327.525 133.153 324.537C127.543 330.633 124.182 332.629 119.194 332.629C111.348 332.629 106.611 326.401 106.611 316.193C106.611 308.471 109.482 303.617 116.706 299.135C119.697 297.27 122.687 295.776 133.153 291.293V288.053C133.153 281.706 131.407 279.207 127.053 279.207C122.699 279.207 120.701 281.825 120.199 288.053H107.987C108.979 275.597 116.216 268.999 128.668 268.999C134.397 268.999 138.512 270.493 141.371 273.733C143.99 276.972 144.732 279.829 144.732 287.432V314.95C144.732 324.286 144.983 327.155 146.107 331.757H134.146ZM133.153 299.876C122.938 305.351 118.824 309.714 118.824 315.44C118.824 319.552 121.312 322.409 124.685 322.409C128.058 322.409 130.916 320.413 133.153 316.802V299.864V299.876Z" fill="black"/>
<path d="M168.2 277.833C173.2 271.605 177.518 268.987 182.637 268.987C189.037 268.987 192.063 273.589 192.063 283.427V331.745H180.712V286.416C180.712 280.941 180.185 279.195 177.039 279.195C174.133 279.195 170.867 281.443 168.188 285.423V331.745H157.363V269.859H168.188V277.833H168.2Z" fill="black"/>
<path d="M145.378 37.9297H58.6223C26.2461 37.9297 0 64.1596 0 96.5158V97.6515C0 130.008 26.2461 156.238 58.6223 156.238H145.378C177.754 156.238 204 130.008 204 97.6515V96.5158C204 64.1596 177.754 37.9297 145.378 37.9297Z" fill="#020202"/>
<path d="M65.8949 126.472C82.5488 126.472 96.0494 112.98 96.0494 96.3365C96.0494 79.693 82.5488 66.2007 65.8949 66.2007C49.2411 66.2007 35.7405 79.693 35.7405 96.3365C35.7405 112.98 49.2411 126.472 65.8949 126.472Z" fill="white"/>
<path d="M142.579 127.213C159.233 127.213 172.733 113.721 172.733 97.0777C172.733 80.4342 159.233 66.9419 142.579 66.9419C125.925 66.9419 112.424 80.4342 112.424 97.0777C112.424 113.721 125.925 127.213 142.579 127.213Z" fill="white"/>
<path d="M87.772 115.367C96.9412 115.367 104.374 107.939 104.374 98.7751C104.374 89.6116 96.9412 82.1831 87.772 82.1831C78.6028 82.1831 71.1697 89.6116 71.1697 98.7751C71.1697 107.939 78.6028 115.367 87.772 115.367Z" fill="#020202"/>
<path d="M162.088 115.367C171.257 115.367 178.69 107.939 178.69 98.7751C178.69 89.6116 171.257 82.1831 162.088 82.1831C152.918 82.1831 145.485 89.6116 145.485 98.7751C145.485 107.939 152.918 115.367 162.088 115.367Z" fill="#020202"/>
<path d="M105.869 65.0173C106.802 44.5164 99.3027 24.2186 85.2243 8.27211C83.1311 5.89328 79.4709 9.26429 81.5522 11.6192C94.7694 26.5855 101.551 45.8313 100.678 65.0173C100.535 68.0656 105.738 68.0656 105.869 65.0173Z" fill="black"/>
<path d="M83.4061 17.381C88.2087 17.381 92.1019 13.4901 92.1019 8.69049C92.1019 3.89086 88.2087 0 83.4061 0C78.6035 0 74.7102 3.89086 74.7102 8.69049C74.7102 13.4901 78.6035 17.381 83.4061 17.381Z" fill="black"/>
<path d="M50.7039 232.874C50.7039 242.593 49.5796 246.824 45.8477 250.554C42.4865 253.793 37.6183 255.539 31.7692 255.539C25.9201 255.539 20.9323 253.793 17.5592 250.554C13.9469 246.824 12.7029 242.581 12.7029 232.874V213.82C12.7029 204.101 13.9469 199.869 17.5592 196.14C20.9203 192.9 25.7885 191.155 31.7692 191.155C37.7498 191.155 42.4865 192.9 45.8477 196.14C49.5796 199.869 50.7039 204.113 50.7039 213.82V232.874ZM24.2934 233.627C24.2934 241.469 26.5421 244.959 31.6496 244.959C36.7571 244.959 39.1254 241.469 39.1254 233.627V213.078C39.1254 205.105 36.8767 201.746 31.6496 201.746C26.4225 201.746 24.2934 205.237 24.2934 213.078V233.627Z" fill="black"/>
<path d="M70.2367 200.383C75.5954 194.155 80.2005 191.537 85.6907 191.537C91.181 191.537 94.2909 194.526 95.4033 200.383C100.882 194.155 105.618 191.537 111.109 191.537C118.082 191.537 121.323 196.14 121.323 205.978V254.295H109.733V208.966C109.733 203.491 108.609 201.746 105.247 201.746C102.138 201.746 98.6448 203.993 95.7741 207.974V254.295H84.1836V208.966C84.1836 203.491 83.0593 201.746 79.6981 201.746C76.5882 201.746 73.0955 203.993 70.2248 207.974V254.295H58.6343V192.41H70.2248V200.383H70.2367Z" fill="black"/>
<path d="M191.596 183.313H180.006V171.24H191.596V183.313ZM191.596 254.295H180.006V192.41H191.596V254.295Z" fill="black"/>
<path d="M144.504 200.431C149.504 194.203 153.822 191.585 158.942 191.585C165.341 191.585 168.367 196.188 168.367 206.026V254.343H157.016V209.014C157.016 203.539 156.49 201.794 153.344 201.794C150.437 201.794 147.172 204.041 144.492 208.022V254.343H133.667V192.458H144.492V200.431H144.504Z" fill="black"/>
</g>
<defs>
<clipPath id="clip0_39_209">
<rect width="204" height="333" fill="white"/>
</clipPath>
</defs>
</svg>
