<svg width="62" height="48" viewBox="0 0 62 48" fill="none" xmlns="http://www.w3.org/2000/svg">
<g clip-path="url(#clip0_137_1034)">
<path d="M44.1834 11.653H17.8166C7.97676 11.653 0 19.7114 0 29.652V30.0009C0 39.9415 7.97676 48 17.8166 48H44.1834C54.0232 48 62 39.9415 62 30.0009V29.652C62 19.7114 54.0232 11.653 44.1834 11.653Z" fill="#020202"/>
<path d="M20.0269 38.8554C25.0884 38.8554 29.1915 34.7103 29.1915 29.597C29.1915 24.4837 25.0884 20.3385 20.0269 20.3385C14.9654 20.3385 10.8623 24.4837 10.8623 29.597C10.8623 34.7103 14.9654 38.8554 20.0269 38.8554Z" fill="white"/>
<path d="M43.3326 39.0831C48.394 39.0831 52.4971 34.9379 52.4971 29.8246C52.4971 24.7113 48.394 20.5662 43.3326 20.5662C38.2711 20.5662 34.168 24.7113 34.168 29.8246C34.168 34.9379 38.2711 39.0831 43.3326 39.0831Z" fill="white"/>
<path d="M26.6757 35.4436C29.4624 35.4436 31.7215 33.1614 31.7215 30.3461C31.7215 27.5309 29.4624 25.2487 26.6757 25.2487C23.889 25.2487 21.6299 27.5309 21.6299 30.3461C21.6299 33.1614 23.889 35.4436 26.6757 35.4436Z" fill="#020202"/>
<path d="M49.2621 35.4436C52.0488 35.4436 54.3079 33.1614 54.3079 30.3461C54.3079 27.5309 52.0488 25.2487 49.2621 25.2487C46.4754 25.2487 44.2163 27.5309 44.2163 30.3461C44.2163 33.1614 46.4754 35.4436 49.2621 35.4436Z" fill="#020202"/>
<path d="M32.1759 19.9749C32.4595 13.6765 30.1802 7.44054 25.9014 2.54138C25.2652 1.81054 24.1528 2.8462 24.7854 3.56969C28.8024 8.1677 30.8636 14.0805 30.5982 19.9749C30.5546 20.9114 32.136 20.9114 32.1759 19.9749Z" fill="black"/>
<path d="M25.3489 5.33986C26.8085 5.33986 27.9918 4.14449 27.9918 2.66993C27.9918 1.19537 26.8085 0 25.3489 0C23.8893 0 22.7061 1.19537 22.7061 2.66993C22.7061 4.14449 23.8893 5.33986 25.3489 5.33986Z" fill="black"/>
</g>
<defs>
<clipPath id="clip0_137_1034">
<rect width="62" height="48" fill="white"/>
</clipPath>
</defs>
</svg>
