<svg width="181" height="38" viewBox="0 0 181 38" fill="none" xmlns="http://www.w3.org/2000/svg">
<g clip-path="url(#clip0_39_105)">
<path d="M35.0631 9.22498H13.7114C6.13881 9.22498 0 15.466 0 23.1646V24.0604C0 31.759 6.13881 38 13.7114 38H35.0631C42.6357 38 48.7745 31.759 48.7745 24.0604V23.1646C48.7745 15.466 42.6357 9.22498 35.0631 9.22498Z" fill="#020202"/>
<path d="M15.7558 30.7631C19.7384 30.7631 22.967 27.4807 22.967 23.4318C22.967 19.3828 19.7384 16.1005 15.7558 16.1005C11.7731 16.1005 8.54453 19.3828 8.54453 23.4318C8.54453 27.4807 11.7731 30.7631 15.7558 30.7631Z" fill="white"/>
<path d="M34.0892 30.9438C38.0718 30.9438 41.3004 27.6615 41.3004 23.6125C41.3004 19.5636 38.0718 16.2812 34.0892 16.2812C30.1065 16.2812 26.8779 19.5636 26.8779 23.6125C26.8779 27.6615 30.1065 30.9438 34.0892 30.9438Z" fill="white"/>
<path d="M20.9845 28.0599C23.1764 28.0599 24.9534 26.2534 24.9534 24.025C24.9534 21.7966 23.1764 19.9901 20.9845 19.9901C18.7925 19.9901 17.0156 21.7966 17.0156 24.025C17.0156 26.2534 18.7925 28.0599 20.9845 28.0599Z" fill="#020202"/>
<path d="M38.7576 28.0599C40.9495 28.0599 42.7264 26.2534 42.7264 24.025C42.7264 21.7966 40.9495 19.9901 38.7576 19.9901C36.5656 19.9901 34.7887 21.7966 34.7887 24.025C34.7887 26.2534 36.5656 28.0599 38.7576 28.0599Z" fill="#020202"/>
<path d="M25.3128 15.8137C25.5369 10.828 23.7438 5.88939 20.3739 2.01159C19.8715 1.43405 18.9981 2.25518 19.4966 2.8288C22.6578 6.47086 24.2771 11.1501 24.0723 15.8176C24.0375 16.5602 25.2819 16.5602 25.3128 15.8176V15.8137Z" fill="black"/>
<path d="M19.9411 4.22746C21.0893 4.22746 22.0202 3.28111 22.0202 2.11373C22.0202 0.946349 21.0893 0 19.9411 0C18.7928 0 17.8619 0.946349 17.8619 2.11373C17.8619 3.28111 18.7928 4.22746 19.9411 4.22746Z" fill="black"/>
</g>
<defs>
<clipPath id="clip0_39_105">
<rect width="181" height="38" fill="white"/>
</clipPath>
</defs>
</svg>
