<svg width="331" height="601" viewBox="0 0 331 601" fill="none" xmlns="http://www.w3.org/2000/svg">
<g opacity="0.1" clip-path="url(#clip0_137_376)">
<path d="M330.4 159.367L167.217 289.645C106.319 338.263 96.3356 427.008 144.918 487.862L146.624 489.997C195.206 550.851 283.958 560.77 344.856 512.151L508.039 381.874C568.937 333.255 578.921 244.511 530.338 183.657L528.633 181.521C480.05 120.668 391.298 110.749 330.4 159.367Z" fill="#020202"/>
<path d="M313.843 445.25C345.168 420.241 350.304 374.592 325.313 343.29C300.323 311.988 254.67 306.886 223.345 331.895C192.02 356.903 186.885 402.552 211.875 433.854C236.865 465.156 282.518 470.258 313.843 445.25Z" fill="white"/>
<path d="M459.195 331.49C490.52 306.481 495.655 260.832 470.665 229.53C445.675 198.228 400.022 193.126 368.697 218.135C337.372 243.143 332.236 288.792 357.227 320.094C382.217 351.396 427.87 356.498 459.195 331.49Z" fill="white"/>
<path d="M338.319 391.511C355.565 377.742 358.393 352.609 344.634 335.375C330.875 318.141 305.74 315.332 288.493 329.101C271.246 342.87 268.419 368.003 282.178 385.237C295.937 402.472 321.072 405.281 338.319 391.511Z" fill="#020202"/>
<path d="M296.759 269.64C267.732 229.682 223.148 202.769 172.723 193.919C165.214 192.589 163.391 204.425 170.842 205.729C218.175 214.029 259.829 240.04 286.994 277.436C291.301 283.384 301.088 275.571 296.759 269.64Z" fill="black"/>
<path d="M182.98 213.781C192.014 206.569 193.495 193.405 186.288 184.378C179.082 175.351 165.916 173.88 156.883 181.092C147.849 188.304 146.369 201.468 153.575 210.495C160.782 219.522 173.947 220.993 182.98 213.781Z" fill="black"/>
</g>
<defs>
<clipPath id="clip0_137_376">
<rect width="491" height="376" fill="white" transform="translate(0 306.34) rotate(-38.6023)"/>
</clipPath>
</defs>
</svg>
