<svg width="468" height="819" viewBox="0 0 468 819" fill="none" xmlns="http://www.w3.org/2000/svg">
<g opacity="0.1" clip-path="url(#clip0_137_594)">
<path d="M167.133 509.89L159.1 301.236C156.102 223.369 90.594 162.673 12.7834 165.669L10.0525 165.774C-67.758 168.77 -128.406 234.323 -125.408 312.19L-117.374 520.844C-114.376 598.711 -48.8682 659.407 28.9423 656.411L31.6733 656.306C109.484 653.31 170.131 587.757 167.133 509.89Z" fill="#020202"/>
<path d="M-53.1545 326.925C-51.6124 366.979 -17.916 398.2 22.1086 396.659C62.1331 395.118 93.3293 361.398 91.7872 321.345C90.2451 281.291 56.5487 250.07 16.5241 251.611C-23.5004 253.152 -54.6966 286.871 -53.1545 326.925Z" fill="white"/>
<path d="M-47.8361 511.425C-46.294 551.478 -12.5976 582.699 27.427 581.158C67.4516 579.617 98.6477 545.898 97.1056 505.844C95.5635 465.79 61.8671 434.57 21.8426 436.11C-18.182 437.651 -49.3782 471.371 -47.8361 511.425Z" fill="white"/>
<path d="M-24.4229 378.513C-23.5739 400.566 -5.02143 417.755 17.0151 416.907C39.0516 416.058 56.2275 397.493 55.3784 375.441C54.5294 353.388 35.977 336.199 13.9404 337.047C-8.09609 337.896 -25.2719 356.461 -24.4229 378.513Z" fill="#020202"/>
<path d="M-17.5415 557.248C-16.6925 579.301 1.85998 596.49 23.8965 595.642C45.933 594.794 63.1089 576.229 62.2598 554.176C61.4108 532.123 42.8584 514.934 20.8219 515.782C-1.21468 516.631 -18.3905 535.196 -17.5415 557.248Z" fill="#020202"/>
<path d="M98.3347 417.377C147.722 417.723 195.84 397.806 232.884 362.47C238.411 357.216 229.966 348.725 224.495 353.948C189.728 387.123 144.074 405.216 97.854 404.892C90.5103 404.829 90.9921 417.343 98.3347 417.377Z" fill="black"/>
<path d="M210.811 358.941C211.256 370.491 220.973 379.495 232.515 379.05C244.057 378.606 253.054 368.882 252.609 357.332C252.164 345.781 242.447 336.777 230.905 337.222C219.363 337.666 210.366 347.39 210.811 358.941Z" fill="black"/>
</g>
<defs>
<clipPath id="clip0_137_594">
<rect width="491" height="376" fill="white" transform="translate(244.886 156.733) rotate(87.7952)"/>
</clipPath>
</defs>
</svg>
