<svg width="426" height="577" viewBox="0 0 426 577" fill="none" xmlns="http://www.w3.org/2000/svg">
<g opacity="0.1" clip-path="url(#clip0_137_409)">
<path d="M79.6352 425.202L257.952 316.557C324.498 276.011 345.6 189.236 305.084 122.738L303.662 120.404C263.147 53.9069 176.356 32.8685 109.81 73.414L-68.5075 182.059C-135.054 222.605 -156.155 309.38 -115.64 375.878L-114.218 378.212C-73.7019 444.709 13.089 465.748 79.6352 425.202Z" fill="#020202"/>
<path d="M132.133 143.694C97.9028 164.55 87.0484 209.186 107.889 243.391C128.73 277.597 173.374 288.418 207.604 267.563C241.834 246.707 252.689 202.071 231.848 167.865C211.007 133.66 166.364 122.838 132.133 143.694Z" fill="white"/>
<path d="M-26.4112 238.204C-60.6415 259.06 -71.496 303.696 -50.6553 337.901C-29.8146 372.106 14.8294 382.928 49.0597 362.072C83.29 341.216 94.1445 296.58 73.3038 262.375C52.4631 228.17 7.81917 217.348 -26.4112 238.204Z" fill="white"/>
<path d="M101.072 193.914C82.226 205.397 76.2498 229.973 87.7242 248.805C99.1985 267.638 123.778 273.596 142.625 262.113C161.471 250.631 167.447 226.055 155.973 207.222C144.499 188.39 119.919 182.432 101.072 193.914Z" fill="#020202"/>
<path d="M-51.6761 286.981C-70.5225 298.464 -76.4987 323.04 -65.0243 341.872C-53.5499 360.705 -28.9701 366.663 -10.1237 355.18C8.72267 343.697 14.6989 319.122 3.22448 300.289C-8.24989 281.457 -32.8297 275.499 -51.6761 286.981Z" fill="#020202"/>
<path d="M126.922 320.056C150.675 363.357 191.506 395.68 240.411 410.822C247.692 413.09 250.994 401.578 243.768 399.345C197.861 385.139 159.822 354.079 137.592 313.555C134.07 307.11 123.375 313.626 126.922 320.056Z" fill="black"/>
<path d="M232.742 389.825C222.871 395.84 219.741 408.712 225.751 418.576C231.761 428.44 244.635 431.561 254.506 425.546C264.378 419.532 267.508 406.66 261.498 396.796C255.488 386.932 242.614 383.811 232.742 389.825Z" fill="black"/>
</g>
<defs>
<clipPath id="clip0_137_409">
<rect width="491" height="376" fill="white" transform="translate(425.94 321.095) rotate(148.647)"/>
</clipPath>
</defs>
</svg>
