<svg width="310" height="607" viewBox="0 0 310 607" fill="none" xmlns="http://www.w3.org/2000/svg">
<g opacity="0.3" clip-path="url(#clip0_137_691)">
<path d="M195.881 235.166C184.784 223.388 166.243 222.837 154.47 233.936C142.697 245.035 142.15 263.581 153.247 275.359L391.937 528.691C403.035 540.469 421.575 541.02 433.348 529.921C445.121 518.822 445.669 500.276 434.571 488.498L195.881 235.166Z" fill="#191919"/>
<path d="M114.385 150.454C108.61 119.937 90.5209 92.6605 64.2511 74.0709C60.3329 71.311 56.1325 77.5419 60.0121 80.2927C84.6641 97.7501 101.349 123.716 106.752 152.277C107.607 156.819 115.24 154.996 114.389 150.471L114.385 150.454Z" fill="black"/>
<path d="M64.7658 88.1293C71.8365 86.4574 76.2127 79.3682 74.5402 72.2951C72.8677 65.222 65.7799 60.8435 58.7092 62.5154C51.6384 64.1874 47.2623 71.2766 48.9348 78.3497C50.6073 85.4228 57.6951 89.8013 64.7658 88.1293Z" fill="black"/>
<path d="M237.819 407.057C321.313 387.314 372.988 303.602 353.238 220.08C333.489 136.559 249.794 84.8557 166.3 104.599C82.8062 124.341 31.1313 208.054 50.8808 291.576C70.6303 375.097 154.325 426.8 237.819 407.057Z" fill="#6B6B6B"/>
<path d="M229.283 367.101C291.307 352.435 329.694 290.249 315.023 228.204C300.352 166.159 238.179 127.751 176.155 142.418C114.131 157.084 75.7438 219.27 90.4149 281.315C105.086 343.359 167.259 381.767 229.283 367.101Z" fill="white"/>
<path d="M232.182 190.178L157.301 207.885C128.703 214.647 111.002 243.316 117.766 271.918C124.529 300.521 153.195 318.226 181.793 311.464L256.674 293.757C285.272 286.995 302.972 258.326 296.208 229.724C289.445 201.121 260.779 183.416 232.182 190.178Z" fill="#191919"/>
<path d="M181.491 284.033C196.062 280.588 205.08 265.979 201.633 251.403C198.187 236.827 183.581 227.804 169.01 231.25C154.439 234.695 145.421 249.304 148.868 263.88C152.314 278.455 166.92 287.478 181.491 284.033Z" fill="white"/>
<path d="M248.714 268.813C263.285 265.367 272.303 250.758 268.856 236.183C265.41 221.607 250.804 212.584 236.233 216.029C221.662 219.475 212.644 234.084 216.09 248.659C219.537 263.235 234.143 272.258 248.714 268.813Z" fill="white"/>
<path d="M198.334 269.776C206.359 267.878 211.325 259.832 209.427 251.804C207.529 243.777 199.485 238.807 191.46 240.705C183.435 242.603 178.468 250.649 180.366 258.676C182.265 266.704 190.309 271.673 198.334 269.776Z" fill="#191919"/>
<path d="M263.349 254.402C271.374 252.505 276.341 244.459 274.443 236.431C272.544 228.403 264.5 223.434 256.475 225.331C248.45 227.229 243.484 235.275 245.382 243.303C247.28 251.33 255.324 256.3 263.349 254.402Z" fill="#191919"/>
<path d="M203.734 221.943C200.3 203.794 189.534 187.579 173.93 176.523C171.608 174.882 169.111 178.593 171.411 180.221C186.067 190.589 195.996 206.035 199.208 223.014C199.72 225.721 204.26 224.63 203.752 221.939L203.734 221.943Z" fill="black"/>
<path d="M174.224 184.867C178.423 183.874 181.021 179.664 180.028 175.464C179.035 171.264 174.827 168.664 170.628 169.657C166.429 170.65 163.831 174.86 164.824 179.06C165.817 183.259 170.026 185.859 174.224 184.867Z" fill="black"/>
</g>
<defs>
<clipPath id="clip0_137_691">
<rect width="332" height="545" fill="white" transform="translate(0 76.3977) rotate(-13.3038)"/>
</clipPath>
</defs>
</svg>
