<svg width="35" height="38" viewBox="0 0 35 38" fill="none" xmlns="http://www.w3.org/2000/svg">
<g clip-path="url(#clip0_123_264)">
<path d="M25.9973 24.8582C27.0933 23.9046 28.7599 24.0146 29.7183 25.1073L34.3482 30.3756C35.3066 31.466 35.1961 33.1242 34.0979 34.0778L30.9 36.86C29.1636 38.1771 27.603 37.9953 27.5782 37.9931C26.9174 37.8719 25.5982 38.1098 24.633 37.8046C20.8691 36.6177 15.4545 34.2236 9.28439 27.2029C3.11429 20.1823 1.10043 14.1174 0.128462 9.91715C-0.173728 8.60905 0.160035 7.10126 0.0765938 6.30473C0.0765938 6.27781 0.0224701 4.74084 1.36203 3.5741C1.46126 3.48884 1.53342 3.41255 1.5898 3.34524L3.80662 1.37299L4.72447 0.646015C5.82047 -0.307575 7.48703 -0.195388 8.44547 0.89507L13.0753 6.16337C14.0337 7.25383 13.9232 8.91196 12.825 9.86555L8.83787 13.3344C10.3646 16.3455 12.0154 19.1322 14.8479 22.3565C17.3195 25.1701 19.4033 26.8484 21.7757 28.529L25.9951 24.8582H25.9973Z" fill="#274BFF"/>
<path d="M31.403 36.4226L30.9024 36.8579C29.1659 38.175 27.6054 37.9932 27.5805 37.991C26.9198 37.8698 25.6005 38.1077 24.6353 37.8025C20.8715 36.6156 15.4568 34.2215 9.28673 27.2008C3.11437 20.1824 1.10052 14.1176 0.128546 9.91731C-0.173644 8.60921 0.160118 7.10142 0.0766777 6.30489C0.0766777 6.29367 0.065402 5.99525 0.164629 5.56445C1.9462 22.9624 17.8315 32.6644 31.4008 36.4204L31.403 36.4226Z" fill="#274BFF"/>
<path d="M7.57055 1.46295L9.44684 3.59451C9.51675 3.67304 9.41527 3.78747 9.32957 3.72465C7.74871 2.58483 5.04929 1.61553 1.80863 4.43816L5.38982 1.31936C6.03028 0.762907 7.01127 0.825732 7.57055 1.46295Z" fill="white"/>
<path d="M28.7916 25.9107L30.6972 28.0759C30.7626 28.1522 30.6656 28.2576 30.5844 28.1993C29.008 27.0505 26.2951 26.0475 23.0319 28.8904L26.6153 25.7671C27.2535 25.2106 28.2323 25.2757 28.7916 25.9107Z" fill="white"/>
</g>
<defs>
<clipPath id="clip0_123_264">
<rect width="35" height="38" fill="white"/>
</clipPath>
</defs>
</svg>
