<svg xmlns="http://www.w3.org/2000/svg" xmlns:xlink="http://www.w3.org/1999/xlink" version="1.1" viewBox="0 0 388 57">
<g id="surface1">
<path style="fill-rule:nonzero;fill:rgb(100%,100%,100%);fill-opacity:1;stroke-width:1;stroke-linecap:butt;stroke-linejoin:round;stroke:rgb(0%,0%,0%);stroke-opacity:1;stroke-miterlimit:4;" d="M 28.5 0.5 L 359.5 0.5 C 374.964844 0.5 387.5 13.035156 387.5 28.5 C 387.5 43.964844 374.964844 56.5 359.5 56.5 L 28.5 56.5 C 13.035156 56.5 0.5 43.964844 0.5 28.5 C 0.5 13.035156 13.035156 0.5 28.5 0.5 Z M 28.5 0.5 "/>
<path style=" stroke:none;fill-rule:nonzero;fill:rgb(0%,0%,0%);fill-opacity:1;" d="M 37.433594 27.164062 L 37.433594 34 L 35.53125 34 L 35.53125 20.554688 L 37.433594 20.554688 L 37.433594 25.414062 L 37.484375 25.464844 C 37.925781 25.148438 38.375 24.917969 38.828125 24.769531 C 39.292969 24.621094 39.769531 24.546875 40.257812 24.546875 C 41.164062 24.546875 41.847656 24.796875 42.3125 25.296875 C 42.777344 25.792969 43.011719 26.53125 43.011719 27.507812 L 43.011719 34 L 41.105469 34 L 41.105469 28.136719 C 41.105469 27.453125 41 26.972656 40.78125 26.691406 C 40.578125 26.394531 40.234375 26.246094 39.746094 26.246094 C 39.316406 26.246094 38.867188 26.339844 38.402344 26.519531 C 37.9375 26.703125 37.617188 26.917969 37.433594 27.164062 Z M 51.222656 33.863281 C 50.972656 33.964844 50.695312 34.046875 50.390625 34.101562 C 50.085938 34.160156 49.773438 34.1875 49.453125 34.1875 C 48.480469 34.1875 47.75 33.914062 47.261719 33.371094 C 46.785156 32.828125 46.546875 32.011719 46.546875 30.921875 L 46.546875 26.367188 L 45.050781 26.367188 L 45.050781 24.734375 L 46.546875 24.734375 L 46.546875 22.285156 L 48.453125 22.285156 L 48.453125 24.734375 L 51.035156 24.734375 L 51.035156 26.367188 L 48.453125 26.367188 L 48.453125 29.867188 C 48.453125 30.878906 48.546875 31.5625 48.742188 31.925781 C 48.945312 32.289062 49.320312 32.46875 49.863281 32.46875 C 50.078125 32.46875 50.304688 32.449219 50.542969 32.402344 C 50.792969 32.355469 51.019531 32.300781 51.222656 32.230469 Z M 58.59375 33.863281 C 58.34375 33.964844 58.066406 34.046875 57.761719 34.101562 C 57.457031 34.160156 57.144531 34.1875 56.824219 34.1875 C 55.851562 34.1875 55.121094 33.914062 54.632812 33.371094 C 54.15625 32.828125 53.917969 32.011719 53.917969 30.921875 L 53.917969 26.367188 L 52.421875 26.367188 L 52.421875 24.734375 L 53.917969 24.734375 L 53.917969 22.285156 L 55.824219 22.285156 L 55.824219 24.734375 L 58.40625 24.734375 L 58.40625 26.367188 L 55.824219 26.367188 L 55.824219 29.867188 C 55.824219 30.878906 55.917969 31.5625 56.113281 31.925781 C 56.316406 32.289062 56.691406 32.46875 57.234375 32.46875 C 57.449219 32.46875 57.675781 32.449219 57.914062 32.402344 C 58.164062 32.355469 58.390625 32.300781 58.59375 32.230469 Z M 62.734375 33.828125 L 62.734375 37.808594 L 60.8125 37.808594 L 60.8125 24.734375 L 62.734375 24.734375 L 62.734375 25.398438 L 62.785156 25.449219 C 63.070312 25.164062 63.410156 24.945312 63.804688 24.785156 C 64.203125 24.628906 64.621094 24.546875 65.0625 24.546875 C 66.140625 24.546875 67.007812 24.988281 67.664062 25.875 C 68.332031 26.757812 68.667969 27.886719 68.667969 29.257812 C 68.667969 30.71875 68.289062 31.910156 67.527344 32.828125 C 66.769531 33.734375 65.765625 34.1875 64.519531 34.1875 C 64.144531 34.1875 63.8125 34.152344 63.515625 34.085938 C 63.234375 34.015625 62.988281 33.914062 62.785156 33.777344 Z M 64.539062 26.230469 C 64.140625 26.230469 63.773438 26.328125 63.433594 26.519531 C 63.101562 26.703125 62.871094 26.929688 62.734375 27.199219 L 62.734375 32.046875 C 62.90625 32.179688 63.121094 32.289062 63.382812 32.367188 C 63.652344 32.4375 63.941406 32.46875 64.25 32.46875 C 65.042969 32.46875 65.652344 32.203125 66.085938 31.671875 C 66.527344 31.128906 66.746094 30.355469 66.746094 29.359375 C 66.746094 28.394531 66.546875 27.636719 66.152344 27.082031 C 65.753906 26.515625 65.21875 26.230469 64.539062 26.230469 Z M 76.941406 31.433594 C 76.941406 32.261719 76.628906 32.929688 76.003906 33.4375 C 75.382812 33.9375 74.546875 34.1875 73.503906 34.1875 C 72.984375 34.1875 72.464844 34.125 71.941406 34 C 71.433594 33.875 71.019531 33.710938 70.699219 33.507812 L 70.699219 31.6875 C 70.847656 31.824219 71.023438 31.949219 71.226562 32.0625 C 71.441406 32.164062 71.6875 32.261719 71.957031 32.351562 C 72.183594 32.417969 72.417969 32.476562 72.65625 32.519531 C 72.894531 32.554688 73.136719 32.570312 73.386719 32.570312 C 73.917969 32.570312 74.332031 32.492188 74.628906 32.335938 C 74.921875 32.164062 75.070312 31.925781 75.070312 31.621094 C 75.070312 31.371094 74.960938 31.144531 74.746094 30.941406 C 74.53125 30.734375 74.0625 30.480469 73.335938 30.175781 C 72.792969 29.9375 72.390625 29.746094 72.128906 29.597656 C 71.878906 29.449219 71.664062 29.296875 71.484375 29.136719 C 71.1875 28.890625 70.96875 28.609375 70.820312 28.304688 C 70.683594 27.988281 70.617188 27.636719 70.617188 27.25 C 70.617188 26.421875 70.917969 25.765625 71.515625 25.277344 C 72.128906 24.792969 72.960938 24.546875 74.015625 24.546875 C 74.515625 24.546875 74.996094 24.609375 75.460938 24.734375 C 75.925781 24.847656 76.304688 24.996094 76.601562 25.175781 L 76.601562 26.878906 C 76.191406 26.648438 75.753906 26.476562 75.289062 26.351562 C 74.835938 26.226562 74.394531 26.164062 73.964844 26.164062 C 73.488281 26.164062 73.121094 26.246094 72.859375 26.417969 C 72.609375 26.589844 72.484375 26.820312 72.484375 27.113281 C 72.484375 27.363281 72.59375 27.589844 72.808594 27.796875 C 73.023438 27.988281 73.496094 28.238281 74.21875 28.542969 C 74.765625 28.769531 75.160156 28.957031 75.410156 29.105469 C 75.671875 29.25 75.890625 29.40625 76.074219 29.5625 C 76.367188 29.8125 76.582031 30.089844 76.71875 30.394531 C 76.867188 30.703125 76.941406 31.046875 76.941406 31.433594 Z M 81.464844 25.875 C 81.464844 26.238281 81.332031 26.546875 81.070312 26.808594 C 80.8125 27.070312 80.5 27.199219 80.136719 27.199219 C 79.773438 27.199219 79.460938 27.070312 79.203125 26.808594 C 78.941406 26.546875 78.8125 26.238281 78.8125 25.875 C 78.8125 25.511719 78.941406 25.199219 79.203125 24.9375 C 79.460938 24.679688 79.773438 24.546875 80.136719 24.546875 C 80.5 24.546875 80.8125 24.679688 81.070312 24.9375 C 81.332031 25.199219 81.464844 25.511719 81.464844 25.875 Z M 81.464844 32.859375 C 81.464844 33.222656 81.332031 33.535156 81.070312 33.796875 C 80.8125 34.058594 80.5 34.1875 80.136719 34.1875 C 79.773438 34.1875 79.460938 34.058594 79.203125 33.796875 C 78.941406 33.535156 78.8125 33.222656 78.8125 32.859375 C 78.8125 32.5 78.941406 32.1875 79.203125 31.925781 C 79.460938 31.664062 79.773438 31.535156 80.136719 31.535156 C 80.5 31.535156 80.8125 31.664062 81.070312 31.925781 C 81.332031 32.1875 81.464844 32.5 81.464844 32.859375 Z M 87.886719 19.210938 L 89.808594 19.210938 L 84.554688 35.324219 L 82.652344 35.324219 Z M 93.164062 19.210938 L 95.085938 19.210938 L 89.832031 35.324219 L 87.929688 35.324219 Z M 101.519531 28.949219 L 99.957031 34 L 98.035156 34 L 95.265625 24.734375 L 97.320312 24.734375 L 98.664062 30.074219 C 98.789062 30.539062 98.878906 30.910156 98.9375 31.195312 C 98.992188 31.46875 99.015625 31.644531 99.003906 31.722656 L 99.054688 31.722656 C 99.054688 31.644531 99.089844 31.46875 99.15625 31.195312 C 99.226562 30.910156 99.328125 30.539062 99.460938 30.074219 L 101.027344 24.734375 L 102.929688 24.734375 L 104.460938 30.074219 C 104.597656 30.550781 104.699219 30.921875 104.765625 31.195312 C 104.835938 31.46875 104.863281 31.644531 104.851562 31.722656 L 104.902344 31.722656 C 104.902344 31.644531 104.929688 31.46875 104.988281 31.195312 C 105.054688 30.921875 105.144531 30.550781 105.261719 30.074219 L 106.621094 24.734375 L 108.59375 24.734375 L 105.785156 34 L 103.867188 34 L 102.351562 28.949219 C 102.226562 28.507812 102.132812 28.152344 102.0625 27.878906 C 101.996094 27.609375 101.960938 27.414062 101.960938 27.300781 L 101.910156 27.300781 C 101.921875 27.414062 101.894531 27.609375 101.824219 27.878906 C 101.757812 28.152344 101.65625 28.507812 101.519531 28.949219 Z M 115.183594 28.949219 L 113.617188 34 L 111.699219 34 L 108.925781 24.734375 L 110.984375 24.734375 L 112.328125 30.074219 C 112.453125 30.539062 112.542969 30.910156 112.597656 31.195312 C 112.65625 31.46875 112.679688 31.644531 112.667969 31.722656 L 112.71875 31.722656 C 112.71875 31.644531 112.753906 31.46875 112.820312 31.195312 C 112.886719 30.910156 112.988281 30.539062 113.125 30.074219 L 114.691406 24.734375 L 116.59375 24.734375 L 118.125 30.074219 C 118.261719 30.550781 118.363281 30.921875 118.429688 31.195312 C 118.496094 31.46875 118.527344 31.644531 118.515625 31.722656 L 118.566406 31.722656 C 118.566406 31.644531 118.59375 31.46875 118.652344 31.195312 C 118.71875 30.921875 118.808594 30.550781 118.921875 30.074219 L 120.28125 24.734375 L 122.253906 24.734375 L 119.449219 34 L 117.527344 34 L 116.015625 28.949219 C 115.890625 28.507812 115.796875 28.152344 115.726562 27.878906 C 115.660156 27.609375 115.625 27.414062 115.625 27.300781 L 115.574219 27.300781 C 115.585938 27.414062 115.558594 27.609375 115.488281 27.878906 C 115.421875 28.152344 115.320312 28.507812 115.183594 28.949219 Z M 128.847656 28.949219 L 127.28125 34 L 125.359375 34 L 122.589844 24.734375 L 124.648438 24.734375 L 125.988281 30.074219 C 126.113281 30.539062 126.203125 30.910156 126.261719 31.195312 C 126.320312 31.46875 126.339844 31.644531 126.328125 31.722656 L 126.382812 31.722656 C 126.382812 31.644531 126.414062 31.46875 126.484375 31.195312 C 126.550781 30.910156 126.652344 30.539062 126.789062 30.074219 L 128.351562 24.734375 L 130.257812 24.734375 L 131.785156 30.074219 C 131.921875 30.550781 132.023438 30.921875 132.09375 31.195312 C 132.160156 31.46875 132.1875 31.644531 132.179688 31.722656 L 132.230469 31.722656 C 132.230469 31.644531 132.257812 31.46875 132.3125 31.195312 C 132.382812 30.921875 132.472656 30.550781 132.585938 30.074219 L 133.945312 24.734375 L 135.917969 24.734375 L 133.113281 34 L 131.191406 34 L 129.679688 28.949219 C 129.554688 28.507812 129.457031 28.152344 129.390625 27.878906 C 129.320312 27.609375 129.289062 27.414062 129.289062 27.300781 L 129.238281 27.300781 C 129.246094 27.414062 129.21875 27.609375 129.152344 27.878906 C 129.085938 28.152344 128.980469 28.507812 128.847656 28.949219 Z M 138.570312 32.84375 C 138.570312 33.207031 138.441406 33.519531 138.179688 33.777344 C 137.921875 34.039062 137.609375 34.171875 137.246094 34.171875 C 136.882812 34.171875 136.570312 34.039062 136.3125 33.777344 C 136.050781 33.519531 135.921875 33.207031 135.921875 32.84375 C 135.921875 32.480469 136.050781 32.167969 136.3125 31.910156 C 136.570312 31.648438 136.882812 31.519531 137.246094 31.519531 C 137.609375 31.519531 137.921875 31.648438 138.179688 31.910156 C 138.441406 32.167969 138.570312 32.480469 138.570312 32.84375 Z M 143.804688 30.632812 L 141.851562 34 L 139.761719 34 L 142.804688 29.121094 L 139.929688 24.734375 L 142.070312 24.734375 L 143.941406 27.796875 L 143.992188 27.796875 L 145.742188 24.734375 L 147.851562 24.734375 L 144.980469 29.34375 L 148.023438 34 L 145.878906 34 L 143.855469 30.632812 Z M 152.753906 30.632812 L 150.800781 34 L 148.707031 34 L 151.75 29.121094 L 148.878906 24.734375 L 151.019531 24.734375 L 152.890625 27.796875 L 152.941406 27.796875 L 154.691406 24.734375 L 156.800781 24.734375 L 153.925781 29.34375 L 156.96875 34 L 154.828125 34 L 152.804688 30.632812 Z M 161.703125 30.632812 L 159.746094 34 L 157.65625 34 L 160.699219 29.121094 L 157.824219 24.734375 L 159.96875 24.734375 L 161.839844 27.796875 L 161.890625 27.796875 L 163.640625 24.734375 L 165.746094 24.734375 L 162.875 29.34375 L 165.917969 34 L 163.777344 34 L 161.753906 30.632812 Z M 170.652344 30.632812 L 168.695312 34 L 166.605469 34 L 169.648438 29.121094 L 166.773438 24.734375 L 168.917969 24.734375 L 170.785156 27.796875 L 170.839844 27.796875 L 172.589844 24.734375 L 174.695312 24.734375 L 171.824219 29.34375 L 174.867188 34 L 172.726562 34 L 170.703125 30.632812 Z M 179.597656 30.632812 L 177.644531 34 L 175.554688 34 L 178.597656 29.121094 L 175.722656 24.734375 L 177.863281 24.734375 L 179.734375 27.796875 L 179.785156 27.796875 L 181.535156 24.734375 L 183.644531 24.734375 L 180.773438 29.34375 L 183.816406 34 L 181.671875 34 L 179.648438 30.632812 Z M 187.664062 32.84375 C 187.664062 33.207031 187.53125 33.519531 187.273438 33.777344 C 187.011719 34.039062 186.699219 34.171875 186.335938 34.171875 C 185.972656 34.171875 185.664062 34.039062 185.402344 33.777344 C 185.140625 33.519531 185.011719 33.207031 185.011719 32.84375 C 185.011719 32.480469 185.140625 32.167969 185.402344 31.910156 C 185.664062 31.648438 185.972656 31.519531 186.335938 31.519531 C 186.699219 31.519531 187.011719 31.648438 187.273438 31.910156 C 187.53125 32.167969 187.664062 32.480469 187.664062 32.84375 Z M 196.058594 33.558594 C 195.765625 33.75 195.382812 33.902344 194.921875 34.015625 C 194.464844 34.128906 194.007812 34.1875 193.542969 34.1875 C 192.25 34.1875 191.230469 33.75 190.484375 32.878906 C 189.734375 32.003906 189.359375 30.839844 189.359375 29.375 C 189.359375 27.914062 189.734375 26.746094 190.484375 25.875 C 191.242188 24.988281 192.269531 24.546875 193.558594 24.546875 C 194.023438 24.546875 194.484375 24.605469 194.9375 24.71875 C 195.390625 24.820312 195.746094 24.957031 196.007812 25.125 L 196.007812 26.960938 C 195.804688 26.757812 195.480469 26.59375 195.039062 26.46875 C 194.609375 26.332031 194.164062 26.265625 193.714844 26.265625 C 192.886719 26.265625 192.273438 26.515625 191.878906 27.011719 C 191.480469 27.511719 191.28125 28.269531 191.28125 29.289062 C 191.28125 30.355469 191.480469 31.15625 191.878906 31.6875 C 192.273438 32.210938 192.875 32.46875 193.679688 32.46875 C 194.097656 32.46875 194.535156 32.402344 194.988281 32.265625 C 195.453125 32.128906 195.808594 31.964844 196.058594 31.773438 Z M 206.140625 29.375 C 206.140625 30.816406 205.761719 31.976562 205.003906 32.859375 C 204.242188 33.746094 203.222656 34.1875 201.941406 34.1875 C 200.675781 34.1875 199.660156 33.746094 198.898438 32.859375 C 198.140625 31.976562 197.761719 30.816406 197.761719 29.375 C 197.761719 27.9375 198.140625 26.773438 198.898438 25.890625 C 199.660156 24.996094 200.675781 24.546875 201.941406 24.546875 C 203.210938 24.546875 204.226562 24.996094 204.984375 25.890625 C 205.757812 26.773438 206.140625 27.9375 206.140625 29.375 Z M 204.222656 29.375 C 204.222656 28.425781 204.015625 27.664062 203.609375 27.097656 C 203.199219 26.53125 202.644531 26.246094 201.941406 26.246094 C 201.230469 26.246094 200.675781 26.53125 200.277344 27.097656 C 199.878906 27.652344 199.683594 28.414062 199.683594 29.375 C 199.683594 30.339844 199.878906 31.097656 200.277344 31.652344 C 200.675781 32.210938 201.230469 32.488281 201.941406 32.488281 C 202.644531 32.488281 203.199219 32.210938 203.609375 31.652344 C 204.015625 31.085938 204.222656 30.328125 204.222656 29.375 Z M 210.421875 27.148438 L 210.421875 34 L 208.519531 34 L 208.519531 24.734375 L 210.421875 24.734375 L 210.421875 25.414062 L 210.472656 25.464844 C 210.902344 25.148438 211.339844 24.917969 211.78125 24.769531 C 212.234375 24.621094 212.707031 24.546875 213.191406 24.546875 C 213.738281 24.546875 214.195312 24.640625 214.570312 24.820312 C 214.957031 25 215.238281 25.269531 215.421875 25.617188 C 215.875 25.269531 216.367188 25 216.898438 24.820312 C 217.433594 24.640625 217.980469 24.546875 218.546875 24.546875 C 219.464844 24.546875 220.144531 24.792969 220.589844 25.277344 C 221.042969 25.765625 221.269531 26.507812 221.269531 27.507812 L 221.269531 34 L 219.363281 34 L 219.363281 28.136719 C 219.363281 27.464844 219.257812 26.984375 219.039062 26.691406 C 218.835938 26.394531 218.492188 26.246094 218.003906 26.246094 C 217.585938 26.246094 217.164062 26.339844 216.746094 26.519531 C 216.328125 26.703125 216.027344 26.917969 215.84375 27.164062 L 215.84375 34 L 213.941406 34 L 213.941406 28.238281 C 213.941406 27.5 213.839844 26.984375 213.636719 26.691406 C 213.441406 26.394531 213.097656 26.246094 212.597656 26.246094 C 212.167969 26.246094 211.742188 26.332031 211.324219 26.503906 C 210.902344 26.671875 210.605469 26.886719 210.421875 27.148438 Z M 228.367188 19.210938 L 230.289062 19.210938 L 225.035156 35.324219 L 223.132812 35.324219 Z M 228.367188 19.210938 "/>
<path style=" stroke:none;fill-rule:nonzero;fill:rgb(0%,0%,0%);fill-opacity:1;" d="M 357.644531 36.582031 L 356.03125 36.582031 L 355.460938 36.03125 C 357.460938 33.703125 358.667969 30.683594 358.667969 27.394531 C 358.667969 20.066406 352.726562 14.125 345.394531 14.125 C 338.066406 14.125 332.125 20.066406 332.125 27.394531 C 332.125 34.726562 338.066406 40.667969 345.394531 40.667969 C 348.683594 40.667969 351.703125 39.460938 354.03125 37.460938 L 354.582031 38.03125 L 354.582031 39.644531 L 364.792969 49.832031 L 367.835938 46.792969 Z M 345.394531 36.582031 C 340.3125 36.582031 336.207031 32.480469 336.207031 27.394531 C 336.207031 22.3125 340.3125 18.207031 345.394531 18.207031 C 350.480469 18.207031 354.582031 22.3125 354.582031 27.394531 C 354.582031 32.480469 350.480469 36.582031 345.394531 36.582031 Z M 345.394531 36.582031 "/>
</g>
</svg>