<svg width="133" height="167" viewBox="0 0 133 167" fill="none" xmlns="http://www.w3.org/2000/svg">
<g clip-path="url(#clip0_137_1089)">
<path d="M69.04 26.8999C69.42 18.4199 66.32 10.0199 60.5 3.41995C59.63 2.43995 58.12 3.82995 58.98 4.80995C64.45 10.9999 67.25 18.9699 66.89 26.8999C66.83 28.1599 68.98 28.1599 69.04 26.8999Z" fill="black"/>
<path d="M59.75 7.2C61.7382 7.2 63.35 5.58822 63.35 3.6C63.35 1.61177 61.7382 0 59.75 0C57.7618 0 56.15 1.61177 56.15 3.6C56.15 5.58822 57.7618 7.2 59.75 7.2Z" fill="black"/>
<path d="M66.17 159.72C99.1138 159.72 125.82 133.014 125.82 100.07C125.82 67.1263 99.1138 40.42 66.17 40.42C33.2262 40.42 6.51999 67.1263 6.51999 100.07C6.51999 133.014 33.2262 159.72 66.17 159.72Z" stroke="#274BFF" stroke-width="13.04" stroke-miterlimit="10"/>
<path d="M44 34.56L49.23 24.1C50.22 22.12 52.25 20.86 54.47 20.86H79.82C82.18 20.86 84.31 22.28 85.22 24.46L89.59 34.92C91.2 38.78 88.37 43.03 84.19 43.03H49.25C44.9 43.03 42.07 38.45 44.01 34.56H44Z" fill="#274BFF"/>
<path d="M67.8 83.45V104.1L80.19 116.48" stroke="#00E28B" stroke-width="6.52" stroke-linecap="round" stroke-linejoin="round"/>
<path d="M65.44 144.08L65.58 138.8" stroke="#00E28B" stroke-width="6.52" stroke-linecap="round" stroke-linejoin="round"/>
<path d="M35.4 130.73L39.22 127.09" stroke="#00E28B" stroke-width="6.52" stroke-linecap="round" stroke-linejoin="round"/>
<path d="M23.59 100.04L28.87 100.17" stroke="#00E28B" stroke-width="6.52" stroke-linecap="round" stroke-linejoin="round"/>
<path d="M36.95 69.99L40.58 73.82" stroke="#00E28B" stroke-width="6.52" stroke-linecap="round" stroke-linejoin="round"/>
<path d="M67.63 58.1899L67.5 63.4599" stroke="#00E28B" stroke-width="6.52" stroke-linecap="round" stroke-linejoin="round"/>
<path d="M97.68 71.5399L93.85 75.1799" stroke="#00E28B" stroke-width="6.52" stroke-linecap="round" stroke-linejoin="round"/>
<path d="M109.49 102.23L104.21 102.09" stroke="#00E28B" stroke-width="6.52" stroke-linecap="round" stroke-linejoin="round"/>
<path d="M96.13 132.28L92.49 128.45" stroke="#00E28B" stroke-width="6.52" stroke-linecap="round" stroke-linejoin="round"/>
</g>
<defs>
<clipPath id="clip0_137_1089">
<rect width="132.34" height="166.24" fill="white"/>
</clipPath>
</defs>
</svg>
